# xmcd CD database file
#
# Track frame offsets:
#	150
#	26387
#	57382
#	78860
#	105535
#	127912
#	150150
#	176390
#	196937
#	224070
#	247190
#
# Disc length: 3951 seconds
#
# Revision: 0
# Processed by: cddbd v1.4PL0 Copyright (c) Steve Scherf et al.
# Submitted via: Feurio! 1.62 - http://www.feurio.com
#
DISCID=880f6d0b
DTITLE=John Mayall and the Bluesbreakers - Castle Master Collection
DYEAR=1992
DGENRE=Blues
TTITLE0=Ridin` On The L&NM
TTITLE1=Help Me
TTITLE2=Fascination Lover
TTITLE3=Ters Came Rolling Down
TTITLE4=Chicago Line
TTITLE5=All Your Love
TTITLE6=Wild About You
TTITLE7=The Last Time 
TTITLE8=Dream About The Blues
TTITLE9=Coold Blooded Mama
TTITLE10=Room To Move
EXTD=
EXTT0=
EXTT1=
EXTT2=
EXTT3=
EXTT4=
EXTT5=
EXTT6=
EXTT7=
EXTT8=
EXTT9=
EXTT10=
PLAYORDER=
